<svg xmlns="http://www.w3.org/2000/svg" viewBox="0 0 256 256" width="256" height="256">
  <defs>
    <linearGradient id="hair" x1="0" y1="0" x2="0" y2="1"><stop offset="0%" stop-color="#56331e"/><stop offset="100%" stop-color="#24150f"/></linearGradient>
    <linearGradient id="coat" x1="0" y1="0" x2="0" y2="1"><stop offset="0%" stop-color="#2a84e8"/><stop offset="100%" stop-color="#0e57b0"/></linearGradient>
    <linearGradient id="boots" x1="0" y1="0" x2="0" y2="1"><stop offset="0%" stop-color="#a4642f"/><stop offset="100%" stop-color="#6f3f18"/></linearGradient>
  </defs>
  <ellipse cx="128" cy="224" rx="42" ry="10" fill="#000" opacity="0.18"/>
  <circle cx="128" cy="78" r="34" fill="#f4c888" stroke="#22160f" stroke-width="4"/>
  <path d="M96 79c4-26 20-43 32-43 12 0 29 17 33 43 1 8 1 14-1 20-5-4-10-7-16-8-2-13-7-21-16-21-8 0-14 8-16 21-6 1-11 4-16 8-2-6-3-12-2-20z" fill="url(#hair)"/>
  <path d="M117 78c0-10 7-17 17-17s17 7 17 17c0 9-7 16-17 16s-17-7-17-16z" fill="#1c120d"/><path d="M153 78c0-10 7-17 17-17s17 7 17 17c0 9-7 16-17 16s-17-7-17-16z" fill="#1c120d"/>
  <circle cx="123" cy="75" r="4" fill="#fff" stroke="none"/><circle cx="159" cy="75" r="4" fill="#fff" stroke="none"/>
  <path d="M116 112c8 6 16 8 26 8 9 0 17-2 24-8" fill="none" stroke="#5a3624" stroke-width="4" stroke-linecap="round"/>
  <path d="M92 122h72c10 0 18 8 18 18v40c0 7-6 13-13 13H87c-7 0-13-6-13-13v-40c0-10 8-18 18-18z" fill="url(#coat)" stroke="#22160f" stroke-width="4"/>
  <path d="M120 124h16l5 37h-26z" fill="#fff" stroke="#22160f" stroke-width="3"/><path d="M118 124l10 14 10-14" fill="none" stroke="#8d5b23" stroke-width="4" stroke-linecap="round" stroke-linejoin="round"/>
  <path d="M121 140h14l4 24h-22z" fill="#c58b3a" stroke="#22160f" stroke-width="3"/>
  <path d="M93 144c-6 5-12 14-16 24" fill="none" stroke="#8d5b23" stroke-width="10" stroke-linecap="round"/>
  <path d="M164 144c12 10 20 22 24 35" fill="none" stroke="#8d5b23" stroke-width="10" stroke-linecap="round"/>
  <rect x="83" y="168" width="28" height="38" rx="10" fill="#2d2f35" stroke="#22160f" stroke-width="4" transform="rotate(10 97 187)"/>
  <rect x="146" y="168" width="28" height="38" rx="10" fill="#2d2f35" stroke="#22160f" stroke-width="4" transform="rotate(-14 160 187)"/>
  <path d="M81 202h34c2 0 4 2 4 4v8H79v-8c0-2 2-4 2-4z" fill="url(#boots)" stroke="#22160f" stroke-width="4" transform="rotate(10 98 208)"/>
  <path d="M142 201h34c2 0 4 2 4 4v8h-40v-8c0-2 2-4 2-4z" fill="url(#boots)" stroke="#22160f" stroke-width="4" transform="rotate(-14 159 207)"/>
</svg>