<svg xmlns="http://www.w3.org/2000/svg" viewBox="0 0 256 256" width="256" height="256">
  <defs>
    <linearGradient id="hair" x1="0" y1="0" x2="0" y2="1"><stop offset="0%" stop-color="#56331e"/><stop offset="100%" stop-color="#24150f"/></linearGradient>
    <linearGradient id="coat" x1="0" y1="0" x2="0" y2="1"><stop offset="0%" stop-color="#2a84e8"/><stop offset="100%" stop-color="#0e57b0"/></linearGradient>
    <linearGradient id="boots" x1="0" y1="0" x2="0" y2="1"><stop offset="0%" stop-color="#a4642f"/><stop offset="100%" stop-color="#6f3f18"/></linearGradient>
  </defs>

  <ellipse cx="128" cy="224" rx="42" ry="10" fill="#000" opacity="0.18"/>

  <circle cx="128" cy="78" r="34" fill="#f4c888" stroke="#22160f" stroke-width="4"/>
  <path d="M96 79c4-26 20-43 32-43 12 0 29 17 33 43 1 8 1 14-1 20-5-4-10-7-16-8-2-13-7-21-16-21-8 0-14 8-16 21-6 1-11 4-16 8-2-6-3-12-2-20z" fill="url(#hair)"/>
  <path d="M104 47c9-9 19-14 24-14 5 0 15 5 24 14 13 13 18 26 17 41-1 7-3 13-6 18-4-9-10-16-18-20-2-13-8-24-17-24-10 0-15 11-17 24-8 4-14 11-18 20-3-5-5-11-6-18-1-15 4-28 17-41z" fill="url(#hair)"/>

  <path d="M109 87c0-10 8-18 19-18h0c11 0 19 8 19 18 0 9-8 17-19 17h0c-11 0-19-8-19-17z" fill="#1c120d"/>
  <path d="M109 87c0-10 8-18 19-18h0c11 0 19 8 19 18 0 9-8 17-19 17h0c-11 0-19-8-19-17z" transform="translate(36 0)" fill="#1c120d"/>
  <circle cx="124" cy="84" r="4" fill="#fff" stroke="none"/>
  <circle cx="160" cy="84" r="4" fill="#fff" stroke="none"/>
  <path d="M116 118c8 6 16 8 26 8 9 0 17-2 24-8" fill="none" stroke="#5a3624" stroke-width="4" stroke-linecap="round"/>
  <path d="M117 120c4 4 9 6 16 6 6 0 11-2 14-6" fill="#f0b55d" stroke="none"/>

  <path d="M92 122h72c10 0 18 8 18 18v40c0 7-6 13-13 13H87c-7 0-13-6-13-13v-40c0-10 8-18 18-18z" fill="url(#coat)" stroke="#22160f" stroke-width="4"/>
  <path d="M120 124h16l5 37h-26z" fill="#fff" stroke="#22160f" stroke-width="3"/>
  <path d="M118 124l10 14 10-14" fill="none" stroke="#8d5b23" stroke-width="4" stroke-linecap="round" stroke-linejoin="round"/>
  <path d="M121 140h14l4 24h-22z" fill="#c58b3a" stroke="#22160f" stroke-width="3"/>

  <path d="M93 144c-8 9-15 18-20 31" fill="none" stroke="#8d5b23" stroke-width="10" stroke-linecap="round"/>
  <path d="M164 144c8 9 15 18 20 31" fill="none" stroke="#8d5b23" stroke-width="10" stroke-linecap="round"/>
  <circle cx="73" cy="176" r="6" fill="#f4c888"/>
  <circle cx="183" cy="176" r="6" fill="#f4c888"/>

  <rect x="82" y="168" width="28" height="38" rx="10" fill="#2d2f35" stroke="#22160f" stroke-width="4"/>
  <rect x="146" y="168" width="28" height="38" rx="10" fill="#2d2f35" stroke="#22160f" stroke-width="4"/>
  <path d="M80 202h34c2 0 4 2 4 4v8H78v-8c0-2 2-4 2-4z" fill="url(#boots)" stroke="#22160f" stroke-width="4"/>
  <path d="M142 202h34c2 0 4 2 4 4v8h-40v-8c0-2 2-4 2-4z" fill="url(#boots)" stroke="#22160f" stroke-width="4"/>

  <path d="M89 132c-10 4-18 10-24 19" fill="none" stroke="#8d5b23" stroke-width="9" stroke-linecap="round"/>
  <path d="M167 132c10 4 18 10 24 19" fill="none" stroke="#8d5b23" stroke-width="9" stroke-linecap="round"/>
</svg>